<svg width="286" height="114" viewBox="0 0 286 114" fill="none" xmlns="http://www.w3.org/2000/svg">
<path d="M62.3331 69.5268C59.5234 69.5268 56.9068 69.0527 54.4834 68.1044C52.0951 67.121 50.0053 65.7688 48.2141 64.0478C46.4229 62.3268 45.018 60.3249 43.9995 58.042C43.0161 55.7239 42.5244 53.2302 42.5244 50.561C42.5244 47.8566 43.0161 45.3629 43.9995 43.08C45.018 40.762 46.4229 38.7424 48.2141 37.0215C50.0405 35.3005 52.1478 33.9659 54.5361 33.0176C56.9595 32.0341 59.5585 31.5424 62.3331 31.5424C64.3702 31.5424 66.3722 31.841 68.339 32.4381C70.3058 33.0351 72.1146 33.878 73.7653 34.9668C75.4512 36.0205 76.8561 37.2849 77.98 38.76L71.8688 44.7659C70.5692 43.1151 69.1117 41.8859 67.4961 41.078C65.9156 40.2702 64.1946 39.8663 62.3331 39.8663C60.858 39.8663 59.4707 40.1473 58.1712 40.7093C56.9068 41.2361 55.8005 41.9737 54.8522 42.922C53.9039 43.8702 53.1663 44.9941 52.6395 46.2937C52.1127 47.5932 51.8492 49.0156 51.8492 50.561C51.8492 52.0712 52.1127 53.4761 52.6395 54.7756C53.2014 56.04 53.9566 57.1639 54.9049 58.1473C55.8883 59.0956 57.0297 59.8332 58.3292 60.36C59.6639 60.8868 61.1039 61.1502 62.6492 61.1502C64.4405 61.1502 66.0912 60.7639 67.6014 59.9912C69.1468 59.2185 70.5341 58.0771 71.7634 56.5668L77.7166 62.4146C76.5927 63.8546 75.2053 65.119 73.5546 66.2078C71.9039 67.2615 70.1127 68.0868 68.1809 68.6839C66.2492 69.2459 64.3 69.5268 62.3331 69.5268ZM94.2154 69.5268C91.3705 69.5268 88.8066 68.8946 86.5237 67.6302C84.2407 66.3307 82.432 64.5922 81.0973 62.4146C79.7627 60.2371 79.0954 57.7961 79.0954 55.0917C79.0954 52.3873 79.7627 49.9463 81.0973 47.7688C82.432 45.5561 84.2407 43.8176 86.5237 42.5532C88.8066 41.2537 91.3705 40.6039 94.2154 40.6039C97.0602 40.6039 99.6241 41.2537 101.907 42.5532C104.19 43.8176 105.999 45.5561 107.333 47.7688C108.668 49.9463 109.335 52.3873 109.335 55.0917C109.335 57.7961 108.668 60.2371 107.333 62.4146C105.999 64.5922 104.19 66.3307 101.907 67.6302C99.6241 68.8946 97.0602 69.5268 94.2154 69.5268ZM94.2154 62.1512C95.5149 62.1512 96.6739 61.8351 97.6924 61.2029C98.711 60.5707 99.5188 59.7278 100.116 58.6741C100.713 57.5854 101.011 56.3912 101.011 55.0917C101.011 53.7571 100.713 52.5629 100.116 51.5093C99.5188 50.4205 98.6934 49.56 97.6398 48.9278C96.6212 48.2956 95.4798 47.9795 94.2154 47.9795C92.951 47.9795 91.792 48.2956 90.7383 48.9278C89.7198 49.56 88.912 50.4205 88.3149 51.5093C87.7178 52.5629 87.4193 53.7571 87.4193 55.0917C87.4193 56.3912 87.7178 57.5854 88.3149 58.6741C88.912 59.7278 89.7198 60.5707 90.7383 61.2029C91.792 61.8351 92.951 62.1512 94.2154 62.1512ZM113.759 69V32.122H132.04C134.569 32.122 136.782 32.561 138.679 33.439C140.61 34.3171 142.12 35.5463 143.209 37.1268C144.298 38.6722 144.842 40.4634 144.842 42.5005C144.842 44.0107 144.456 45.4332 143.683 46.7678C142.946 48.0673 141.927 49.1737 140.628 50.0868C142.279 50.9649 143.578 52.1063 144.526 53.5112C145.51 54.9161 146.001 56.4615 146.001 58.1473C146.001 60.2898 145.457 62.1863 144.368 63.8371C143.279 65.4527 141.752 66.7171 139.785 67.6302C137.818 68.5434 135.535 69 132.936 69H113.759ZM122.821 46.8205H131.461C132.796 46.8205 133.849 46.4868 134.622 45.8195C135.395 45.1522 135.781 44.2741 135.781 43.1854C135.781 42.0615 135.395 41.1834 134.622 40.5512C133.849 39.8839 132.796 39.5502 131.461 39.5502H122.821V46.8205ZM122.821 61.5717H132.251C133.656 61.5717 134.762 61.2205 135.57 60.518C136.413 59.8156 136.835 58.8673 136.835 57.6732C136.835 56.479 136.413 55.5307 135.57 54.8283C134.762 54.1259 133.656 53.7746 132.251 53.7746H122.821V61.5717ZM163.825 69.5268C160.98 69.5268 158.416 68.8946 156.133 67.6302C153.85 66.3307 152.041 64.5922 150.707 62.4146C149.372 60.2371 148.705 57.7961 148.705 55.0917C148.705 52.3873 149.372 49.9463 150.707 47.7688C152.041 45.5561 153.85 43.8176 156.133 42.5532C158.416 41.2537 160.98 40.6039 163.825 40.6039C166.67 40.6039 169.234 41.2537 171.516 42.5532C173.799 43.8176 175.608 45.5561 176.943 47.7688C178.277 49.9463 178.945 52.3873 178.945 55.0917C178.945 57.7961 178.277 60.2371 176.943 62.4146C175.608 64.5922 173.799 66.3307 171.516 67.6302C169.234 68.8946 166.67 69.5268 163.825 69.5268ZM163.825 62.1512C165.124 62.1512 166.283 61.8351 167.302 61.2029C168.32 60.5707 169.128 59.7278 169.725 58.6741C170.322 57.5854 170.621 56.3912 170.621 55.0917C170.621 53.7571 170.322 52.5629 169.725 51.5093C169.128 50.4205 168.303 49.56 167.249 48.9278C166.231 48.2956 165.089 47.9795 163.825 47.9795C162.56 47.9795 161.401 48.2956 160.348 48.9278C159.329 49.56 158.521 50.4205 157.924 51.5093C157.327 52.5629 157.029 53.7571 157.029 55.0917C157.029 56.3912 157.327 57.5854 157.924 58.6741C158.521 59.7278 159.329 60.5707 160.348 61.2029C161.401 61.8351 162.56 62.1512 163.825 62.1512ZM196.803 69.5268C193.958 69.5268 191.394 68.8946 189.111 67.6302C186.828 66.3307 185.02 64.5922 183.685 62.4146C182.35 60.2371 181.683 57.7961 181.683 55.0917C181.683 52.3873 182.35 49.9463 183.685 47.7688C185.02 45.5561 186.828 43.8176 189.111 42.5532C191.394 41.2537 193.958 40.6039 196.803 40.6039C199.648 40.6039 202.212 41.2537 204.495 42.5532C206.778 43.8176 208.586 45.5561 209.921 47.7688C211.256 49.9463 211.923 52.3873 211.923 55.0917C211.923 57.7961 211.256 60.2371 209.921 62.4146C208.586 64.5922 206.778 66.3307 204.495 67.6302C202.212 68.8946 199.648 69.5268 196.803 69.5268ZM196.803 62.1512C198.103 62.1512 199.262 61.8351 200.28 61.2029C201.299 60.5707 202.106 59.7278 202.704 58.6741C203.301 57.5854 203.599 56.3912 203.599 55.0917C203.599 53.7571 203.301 52.5629 202.704 51.5093C202.106 50.4205 201.281 49.56 200.227 48.9278C199.209 48.2956 198.067 47.9795 196.803 47.9795C195.539 47.9795 194.38 48.2956 193.326 48.9278C192.307 49.56 191.5 50.4205 190.903 51.5093C190.305 52.5629 190.007 53.7571 190.007 55.0917C190.007 56.3912 190.305 57.5854 190.903 58.6741C191.5 59.7278 192.307 60.5707 193.326 61.2029C194.38 61.8351 195.539 62.1512 196.803 62.1512ZM215.926 69V32.122L224.46 30.8049V52.5102L235.576 41.1307H245.112L232.732 53.722L245.955 69H235.155L224.46 56.5141V69H215.926Z" fill="#0658F6"/>
<path d="M270.512 85L19.7317 98.1707L15 85H270.512Z" fill="#0658F6"/>
</svg>
